# Blender 4.2.2 LTS
# www.blender.org
o markerArrow
v 0.000000 0.000000 -0.000000
v 0.000000 2.000000 1.000000
v -0.195090 2.000000 0.980785
v -0.382683 2.000000 0.923880
v -0.555570 2.000000 0.831470
v -0.707107 2.000000 0.707107
v -0.831470 2.000000 0.555570
v -0.923880 2.000000 0.382683
v -0.980785 2.000000 0.195090
v -1.000000 2.000000 0.000000
v -0.980785 2.000000 -0.195090
v -0.923880 2.000000 -0.382683
v -0.831470 2.000000 -0.555570
v -0.707107 2.000000 -0.707107
v -0.555570 2.000000 -0.831470
v -0.382683 2.000000 -0.923880
v -0.195090 2.000000 -0.980785
v 0.000000 2.000000 -1.000000
v 0.195091 2.000000 -0.980785
v 0.382684 2.000000 -0.923879
v 0.555571 2.000000 -0.831469
v 0.707107 2.000000 -0.707106
v 0.831470 2.000000 -0.555570
v 0.923880 2.000000 -0.382683
v 0.980785 2.000000 -0.195089
v 1.000000 2.000000 0.000001
v 0.980785 2.000000 0.195091
v 0.923879 2.000000 0.382684
v 0.831469 2.000000 0.555571
v 0.707106 2.000000 0.707108
v 0.555569 2.000000 0.831470
v 0.382682 2.000000 0.923880
v 0.195089 2.000000 0.980786
v 0.000000 2.000000 0.578860
v -0.112930 2.000000 0.567737
v -0.221520 2.000000 0.534796
v -0.321597 2.000000 0.481304
v -0.409315 2.000000 0.409316
v -0.481304 2.000000 0.321597
v -0.534796 2.000000 0.221520
v -0.567737 2.000000 0.112930
v -0.578859 2.000000 0.000000
v -0.567737 2.000000 -0.112930
v -0.534796 2.000000 -0.221520
v -0.481304 2.000000 -0.321597
v -0.409315 2.000000 -0.409315
v -0.321597 2.000000 -0.481304
v -0.221520 2.000000 -0.534796
v -0.112930 2.000000 -0.567737
v 0.000000 2.000000 -0.578859
v 0.112930 2.000000 -0.567737
v 0.221520 2.000000 -0.534796
v 0.321597 2.000000 -0.481304
v 0.409316 2.000000 -0.409315
v 0.481304 2.000000 -0.321597
v 0.534796 2.000000 -0.221519
v 0.567737 2.000000 -0.112929
v 0.578859 2.000000 0.000001
v 0.567737 2.000000 0.112931
v 0.534796 2.000000 0.221521
v 0.481304 2.000000 0.321598
v 0.409315 2.000000 0.409316
v 0.321596 2.000000 0.481305
v 0.221519 2.000000 0.534797
v 0.112929 2.000000 0.567737
v 0.578859 4.000000 0.000001
v 0.567737 4.000000 -0.112929
v -0.221520 4.000000 0.534796
v -0.112930 4.000000 0.567737
v -0.321597 4.000000 -0.481304
v -0.409315 4.000000 -0.409315
v 0.534796 4.000000 -0.221519
v 0.481304 4.000000 -0.321597
v -0.481304 4.000000 -0.321597
v -0.534796 4.000000 -0.221520
v 0.112929 4.000000 0.567737
v 0.221519 4.000000 0.534797
v 0.409316 4.000000 -0.409315
v 0.321597 4.000000 -0.481304
v -0.567737 4.000000 -0.112930
v -0.578859 4.000000 0.000000
v 0.321596 4.000000 0.481305
v 0.409315 4.000000 0.409316
v 0.221520 4.000000 -0.534796
v 0.112930 4.000000 -0.567737
v -0.567737 4.000000 0.112930
v -0.534796 4.000000 0.221520
v 0.481304 4.000000 0.321598
v 0.534796 4.000000 0.221521
v -0.481304 4.000000 0.321597
v -0.409315 4.000000 0.409316
v 0.000000 4.000000 -0.578859
v -0.112930 4.000000 -0.567737
v 0.567737 4.000000 0.112931
v -0.321597 4.000000 0.481304
v -0.221520 4.000000 -0.534796
v 0.000000 4.000000 0.578860
vn -0.0000 -1.0000 -0.0000
vn -0.0000 0.1916 0.9815
vn -0.1915 0.1916 0.9626
vn -0.3756 0.1916 0.9068
vn -0.5453 0.1916 0.8161
vn -0.6940 0.1916 0.6940
vn -0.8161 0.1916 0.5453
vn -0.9068 0.1916 0.3756
vn -0.9626 0.1916 0.1915
vn -0.9815 0.1916 -0.0000
vn -0.9626 0.1916 -0.1915
vn -0.9068 0.1916 -0.3756
vn -0.8161 0.1916 -0.5453
vn -0.6940 0.1916 -0.6940
vn -0.5453 0.1916 -0.8161
vn -0.3756 0.1916 -0.9068
vn -0.1915 0.1916 -0.9626
vn -0.0000 0.1916 -0.9815
vn 0.1915 0.1916 -0.9626
vn 0.3756 0.1916 -0.9068
vn 0.5453 0.1916 -0.8161
vn 0.6940 0.1916 -0.6940
vn 0.8161 0.1916 -0.5453
vn 0.9068 0.1916 -0.3756
vn 0.9626 0.1916 -0.1915
vn 0.9815 0.1916 -0.0000
vn 0.9626 0.1916 0.1915
vn 0.9068 0.1916 0.3756
vn 0.8161 0.1916 0.5453
vn 0.6940 0.1916 0.6940
vn 0.5453 0.1916 0.8161
vn 0.3756 0.1916 0.9068
vn 0.1915 0.1916 0.9626
vn 0.8150 0.4709 -0.3376
vn -0.7335 0.4709 -0.4901
vn -0.0000 0.4709 0.8822
vn 0.7335 0.4709 -0.4901
vn -0.8150 0.4709 -0.3376
vn 0.1721 0.4709 0.8652
vn 0.6238 0.4709 -0.6238
vn -0.8652 0.4709 -0.1721
vn 0.3376 0.4709 0.8150
vn 0.4901 0.4709 -0.7335
vn -0.8822 0.4709 -0.0000
vn 0.4901 0.4709 0.7335
vn 0.3376 0.4709 -0.8150
vn -0.8652 0.4709 0.1721
vn 0.6238 0.4709 0.6238
vn 0.1721 0.4709 -0.8652
vn -0.1721 0.4709 0.8652
vn -0.8150 0.4709 0.3376
vn 0.7335 0.4709 0.4901
vn -0.7335 0.4709 0.4901
vn -0.0000 0.4709 -0.8822
vn 0.8150 0.4709 0.3376
vn -0.6238 0.4709 0.6238
vn -0.1721 0.4709 -0.8652
vn 0.8652 0.4709 0.1721
vn -0.4901 0.4709 0.7335
vn -0.3376 0.4709 -0.8150
vn 0.8822 0.4709 -0.0000
vn -0.3376 0.4709 0.8150
vn -0.4901 0.4709 -0.7335
vn 0.8652 0.4709 -0.1721
vn -0.6238 0.4709 -0.6238
vn 0.5026 0.4261 -0.7522
vn 0.3462 0.4261 -0.8358
vn 0.6397 0.4261 -0.6397
vn -0.1765 0.4261 -0.8873
vn -0.0000 0.4261 -0.9047
vn -0.6397 0.4261 0.6397
vn -0.7522 0.4261 0.5026
vn 0.8358 0.4261 0.3462
vn 0.7522 0.4261 0.5026
vn -0.8358 0.4261 0.3462
vn -0.8873 0.4261 0.1765
vn 0.1765 0.4261 -0.8873
vn 0.6397 0.4261 0.6397
vn 0.5026 0.4261 0.7522
vn -0.9047 0.4261 -0.0000
vn -0.8873 0.4261 -0.1765
vn 0.3462 0.4261 0.8358
vn 0.1765 0.4261 0.8873
vn -0.0000 0.4261 0.9047
vn -0.8358 0.4261 -0.3462
vn -0.7522 0.4261 -0.5026
vn 0.7522 0.4261 -0.5026
vn 0.8358 0.4261 -0.3462
vn -0.6397 0.4261 -0.6397
vn -0.5026 0.4261 -0.7522
vn -0.3462 0.4261 -0.8358
vn -0.1765 0.4261 0.8873
vn -0.3462 0.4261 0.8358
vn -0.5026 0.4261 0.7522
vn 0.8873 0.4261 -0.1765
vn 0.9047 0.4261 -0.0000
vn 0.8873 0.4261 0.1765
vt 0.000000 0.000000
vt 0.549236 0.999900
vt 0.450764 0.999900
vt 0.645815 0.980689
vt 0.354184 0.980689
vt 0.263208 0.943005
vt 0.181332 0.888297
vt 0.111702 0.818667
vt 0.056994 0.736790
vt 0.019311 0.645815
vt 0.000100 0.549235
vt 0.000100 0.450763
vt 0.019310 0.354184
vt 0.056994 0.263208
vt 0.111702 0.181332
vt 0.943005 0.263208
vt 0.818666 0.111702
vt 0.888296 0.181332
vt 0.980688 0.354184
vt 0.999899 0.549236
vt 0.999899 0.450764
vt 0.943005 0.736791
vt 0.980689 0.645815
vt 0.181332 0.111702
vt 0.736791 0.943006
vt 0.263209 0.056994
vt 0.354185 0.019311
vt 0.450764 0.000100
vt 0.818667 0.888298
vt 0.888297 0.818668
vt 0.549235 0.000100
vt 0.645815 0.019311
vt 0.736791 0.056994
s 1
f 1/1/1 2/1/2 3/1/3
f 1/1/1 3/1/3 4/1/4
f 1/1/1 4/1/4 5/1/5
f 1/1/1 5/1/5 6/1/6
f 1/1/1 6/1/6 7/1/7
f 1/1/1 7/1/7 8/1/8
f 1/1/1 8/1/8 9/1/9
f 1/1/1 9/1/9 10/1/10
f 1/1/1 10/1/10 11/1/11
f 1/1/1 11/1/11 12/1/12
f 1/1/1 12/1/12 13/1/13
f 1/1/1 13/1/13 14/1/14
f 1/1/1 14/1/14 15/1/15
f 1/1/1 15/1/15 16/1/16
f 1/1/1 16/1/16 17/1/17
f 1/1/1 17/1/17 18/1/18
f 1/1/1 18/1/18 19/1/19
f 1/1/1 19/1/19 20/1/20
f 1/1/1 20/1/20 21/1/21
f 1/1/1 21/1/21 22/1/22
f 1/1/1 22/1/22 23/1/23
f 1/1/1 23/1/23 24/1/24
f 1/1/1 24/1/24 25/1/25
f 1/1/1 25/1/25 26/1/26
f 1/1/1 26/1/26 27/1/27
f 1/1/1 27/1/27 28/1/28
f 1/1/1 28/1/28 29/1/29
f 1/1/1 29/1/29 30/1/30
f 1/1/1 30/1/30 31/1/31
f 1/1/1 31/1/31 32/1/32
f 1/1/1 32/1/32 33/1/33
f 1/1/1 33/1/33 2/1/2
f 24/1/24 23/1/23 56/1/34
f 13/1/13 12/1/12 45/1/35
f 2/1/2 33/1/33 34/1/36
f 23/1/23 22/1/22 55/1/37
f 12/1/12 11/1/11 44/1/38
f 33/1/33 32/1/32 65/1/39
f 22/1/22 21/1/21 54/1/40
f 11/1/11 10/1/10 43/1/41
f 32/1/32 31/1/31 64/1/42
f 21/1/21 20/1/20 53/1/43
f 10/1/10 9/1/9 42/1/44
f 31/1/31 30/1/30 63/1/45
f 20/1/20 19/1/19 52/1/46
f 9/1/9 8/1/8 41/1/47
f 30/1/30 29/1/29 62/1/48
f 19/1/19 18/1/18 51/1/49
f 3/1/3 2/1/2 35/1/50
f 8/1/8 7/1/7 40/1/51
f 29/1/29 28/1/28 61/1/52
f 7/1/7 6/1/6 39/1/53
f 18/1/18 17/1/17 50/1/54
f 28/1/28 27/1/27 60/1/55
f 6/1/6 5/1/5 38/1/56
f 17/1/17 16/1/16 49/1/57
f 27/1/27 26/1/26 59/1/58
f 5/1/5 4/1/4 37/1/59
f 16/1/16 15/1/15 48/1/60
f 26/1/26 25/1/25 58/1/61
f 4/1/4 3/1/3 36/1/62
f 15/1/15 14/1/14 47/1/63
f 25/1/25 24/1/24 57/1/64
f 14/1/14 13/1/13 46/1/65
f 79/2/66 84/3/67 78/4/68
f 49/1/57 48/1/60 93/1/69
f 50/1/54 49/1/57 92/1/70
f 38/1/56 37/1/59 91/1/71
f 39/1/53 38/1/56 90/1/72
f 60/1/55 59/1/58 89/1/73
f 61/1/52 60/1/55 88/1/74
f 40/1/51 39/1/53 87/1/75
f 41/1/47 40/1/51 86/1/76
f 51/1/49 50/1/54 85/1/77
f 52/1/46 51/1/49 84/1/67
f 62/1/48 61/1/52 83/1/78
f 63/1/45 62/1/48 82/1/79
f 42/1/44 41/1/47 81/1/80
f 43/1/41 42/1/44 80/1/81
f 53/1/43 52/1/46 79/1/66
f 54/1/40 53/1/43 78/1/68
f 64/1/42 63/1/45 77/1/82
f 65/1/39 64/1/42 76/1/83
f 34/1/36 65/1/39 97/1/84
f 44/1/38 43/1/41 75/1/85
f 45/1/35 44/1/38 74/1/86
f 55/1/37 54/1/40 73/1/87
f 56/1/34 55/1/37 72/1/88
f 46/1/65 45/1/35 71/1/89
f 47/1/63 46/1/65 70/1/90
f 48/1/60 47/1/63 96/1/91
f 35/1/50 34/1/36 69/1/92
f 36/1/62 35/1/50 68/1/93
f 37/1/59 36/1/62 95/1/94
f 57/1/64 56/1/34 67/1/95
f 58/1/61 57/1/64 66/1/96
f 59/1/58 58/1/61 94/1/97
f 23/1/23 55/1/37 56/1/34
f 12/1/12 44/1/38 45/1/35
f 33/1/33 65/1/39 34/1/36
f 22/1/22 54/1/40 55/1/37
f 11/1/11 43/1/41 44/1/38
f 32/1/32 64/1/42 65/1/39
f 21/1/21 53/1/43 54/1/40
f 10/1/10 42/1/44 43/1/41
f 31/1/31 63/1/45 64/1/42
f 20/1/20 52/1/46 53/1/43
f 9/1/9 41/1/47 42/1/44
f 30/1/30 62/1/48 63/1/45
f 19/1/19 51/1/49 52/1/46
f 8/1/8 40/1/51 41/1/47
f 29/1/29 61/1/52 62/1/48
f 18/1/18 50/1/54 51/1/49
f 2/1/2 34/1/36 35/1/50
f 7/1/7 39/1/53 40/1/51
f 28/1/28 60/1/55 61/1/52
f 6/1/6 38/1/56 39/1/53
f 17/1/17 49/1/57 50/1/54
f 27/1/27 59/1/58 60/1/55
f 5/1/5 37/1/59 38/1/56
f 16/1/16 48/1/60 49/1/57
f 26/1/26 58/1/61 59/1/58
f 4/1/4 36/1/62 37/1/59
f 15/1/15 47/1/63 48/1/60
f 25/1/25 57/1/64 58/1/61
f 3/1/3 35/1/50 36/1/62
f 14/1/14 46/1/65 47/1/63
f 24/1/24 56/1/34 57/1/64
f 13/1/13 45/1/35 46/1/65
f 84/3/67 85/5/77 78/4/68
f 85/5/77 92/6/70 78/4/68
f 92/6/70 93/7/69 78/4/68
f 93/7/69 96/8/91 78/4/68
f 96/8/91 70/9/90 78/4/68
f 70/9/90 71/10/89 78/4/68
f 71/10/89 74/11/86 78/4/68
f 74/11/86 75/12/85 78/4/68
f 75/12/85 80/13/81 78/4/68
f 80/13/81 81/14/80 78/4/68
f 81/14/80 86/15/76 78/4/68
f 82/16/79 76/17/83 77/18/82
f 83/19/78 76/17/83 82/16/79
f 89/20/73 83/19/78 88/21/74
f 89/20/73 76/17/83 83/19/78
f 66/22/96 89/20/73 94/23/97
f 66/22/96 76/17/83 89/20/73
f 86/15/76 87/24/75 78/4/68
f 78/4/68 87/24/75 73/25/87
f 87/24/75 90/26/72 73/25/87
f 90/26/72 91/27/71 73/25/87
f 91/27/71 95/28/94 73/25/87
f 73/25/87 95/28/94 72/29/88
f 67/30/95 76/17/83 66/22/96
f 72/29/88 95/28/94 67/30/95
f 95/28/94 68/31/93 67/30/95
f 68/31/93 69/32/92 67/30/95
f 69/32/92 97/33/84 67/30/95
f 97/33/84 76/17/83 67/30/95
f 48/1/60 96/1/91 93/1/69
f 49/1/57 93/1/69 92/1/70
f 37/1/59 95/1/94 91/1/71
f 38/1/56 91/1/71 90/1/72
f 59/1/58 94/1/97 89/1/73
f 60/1/55 89/1/73 88/1/74
f 39/1/53 90/1/72 87/1/75
f 40/1/51 87/1/75 86/1/76
f 50/1/54 92/1/70 85/1/77
f 51/1/49 85/1/77 84/1/67
f 61/1/52 88/1/74 83/1/78
f 62/1/48 83/1/78 82/1/79
f 41/1/47 86/1/76 81/1/80
f 42/1/44 81/1/80 80/1/81
f 52/1/46 84/1/67 79/1/66
f 53/1/43 79/1/66 78/1/68
f 63/1/45 82/1/79 77/1/82
f 64/1/42 77/1/82 76/1/83
f 65/1/39 76/1/83 97/1/84
f 43/1/41 80/1/81 75/1/85
f 44/1/38 75/1/85 74/1/86
f 54/1/40 78/1/68 73/1/87
f 55/1/37 73/1/87 72/1/88
f 45/1/35 74/1/86 71/1/89
f 46/1/65 71/1/89 70/1/90
f 47/1/63 70/1/90 96/1/91
f 34/1/36 97/1/84 69/1/92
f 35/1/50 69/1/92 68/1/93
f 36/1/62 68/1/93 95/1/94
f 56/1/34 72/1/88 67/1/95
f 57/1/64 67/1/95 66/1/96
f 58/1/61 66/1/96 94/1/97
